<mxfile host="app.diagrams.net" modified="2023-06-20T21:41:15.282Z" agent="Mozilla/5.0 (Windows NT 10.0; Win64; x64) AppleWebKit/537.36 (KHTML, like Gecko) Chrome/114.0.0.0 Safari/537.36" etag="QGd6J_Dtwmh5OGWBX_Mn" version="21.3.3" type="device">
  <diagram name="PÃ¡gina-1" id="EA0A0LOqHPsOTfhTbwby">
    <mxGraphModel dx="787" dy="1243" grid="1" gridSize="10" guides="1" tooltips="1" connect="1" arrows="1" fold="1" page="1" pageScale="1" pageWidth="827" pageHeight="1169" math="0" shadow="0">
      <root>
        <mxCell id="0" />
        <mxCell id="1" parent="0" />
        <mxCell id="zww3sfRDonu8iNrRwF99-1" value="Cliente" style="swimlane;whiteSpace=wrap;html=1;" vertex="1" parent="1">
          <mxGeometry x="120" y="80" width="200" height="1160" as="geometry" />
        </mxCell>
        <mxCell id="zww3sfRDonu8iNrRwF99-9" value="Datos de producto" style="whiteSpace=wrap;html=1;shape=mxgraph.basic.oval_callout" vertex="1" parent="zww3sfRDonu8iNrRwF99-1">
          <mxGeometry x="50" y="170" width="100" height="60" as="geometry" />
        </mxCell>
        <mxCell id="zww3sfRDonu8iNrRwF99-30" value="Datos de &lt;br&gt;pago" style="whiteSpace=wrap;html=1;shape=mxgraph.basic.oval_callout" vertex="1" parent="zww3sfRDonu8iNrRwF99-1">
          <mxGeometry x="40" y="690" width="100" height="60" as="geometry" />
        </mxCell>
        <mxCell id="zww3sfRDonu8iNrRwF99-50" style="edgeStyle=orthogonalEdgeStyle;rounded=0;orthogonalLoop=1;jettySize=auto;html=1;entryX=0.5;entryY=0;entryDx=0;entryDy=0;" edge="1" parent="zww3sfRDonu8iNrRwF99-1" source="zww3sfRDonu8iNrRwF99-45" target="zww3sfRDonu8iNrRwF99-49">
          <mxGeometry relative="1" as="geometry" />
        </mxCell>
        <mxCell id="zww3sfRDonu8iNrRwF99-45" value="" style="shape=image;verticalLabelPosition=bottom;labelBackgroundColor=default;verticalAlign=top;aspect=fixed;imageAspect=0;image=data:image/png,iVBORw0KGgoAAAANSUhEUgAAACQAAAA1CAYAAAApikmmAAAAAXNSR0IArs4c6QAAAARnQU1BAACxjwv8YQUAAAAJcEhZcwAADsMAAA7DAcdvqGQAAASoSURBVFhH7ZhZKH1fFMeX6/qZS0LKWIRMZXiUMiRTXCJTIXM88MaDByUPXiTyICGZiniQB54oQyJFyDykkEzJPN7/Wds+9/+/3HuGe/h1/+VTu7332ufc+z17r7UnAyUD6BEymusNv4L4UPOh09NT2N3dBZlMd51mZmbg7+9Pa+JRCeru7oa5uTnw8PDQWZCBgQGsrKzA0dERDA4OgqmpKW0RAQo6PDxUFhQUKN/e3rAqifHxcaVCoVAWFxcrb25uqFU4pCv29vbAwcFB0lCxnJ+fQ0lJCSQmJkJ+fj7c39/TFmEQBXK5HJjeIQap4LCdnZ1BTEwMJCUlQV5enihR0ruEg/T0dEhISADGHQSL+lFBSGZmJsTFxUFhYSE8PDxQq3bkNNfK0NAQHBwckKFgYXwPrKysIDc3FwwNDalVO1lZWSRnHB3a2trA2NiY1DXB20Pu7u4QEBCglgIDA8HX11dNJB8oKioqCoqKiuD5+ZlaNYChNj09rayursaiZPr6+pTMnEZrX+nq6lLm5OQon56eqEWdH/ehz2RnZ0NYWBiZGjT11LcLYj6SLB9cMD0E8fHxUFVVBe/v79T6AVk6ZmZmYGxsDGpra6lZd/r7+2FiYoL4C4rThrm5ObS0tJDg6O3tpVYBUcaMOayvr6tFE36Vra0tlJeXf4my8PBwuLu7g8vLS05BV1dXkJGRAQMDA9TyAW8P7ezswPX1Na39i4mJCXh7e4uKNE3U19dDZWUlrQkM+6CgoC/Jx8dHshjk8fGRlj7461HGh2hBJycnsLi4qJbQ9hm27fb2llqEIVpQWVkZBAcHQ0VFBdTV1ZG0sLBAWwF6enrIUKLDYpulpSWMjIzQVn7kzAxNtgra6OjogM3NTZW/rK2tkdzNzQ3s7e1JeXZ2liRsGx0dJVtY9jfxA5qbm0mYR0REEBsX8pSUFBKm2sDtA67SrKDl5WXY2tqCtLQ08PPzIzaW0NBQknd2doKdnR0pIxj+ON/wMT8/DzJnZ2da1YyNjQ04OTmBo6MjSew++eLighwKMOFchGl/f5+04eLLPo8J38eh4wLF4GjJsCt1obW1Vc2Hjo+PaYt4lpaWiJiXlxeQce1NuGhsbITh4WGScFg9PT1pi3hwrmNH6tvmIQsLCwgJCSHlyclJkrNomhb+C76LH4iieNey9vZ22NjYUJ1IVldXSd7U1KSKMhYvLy9g9lZke5GcnEz+CIcS/ayhoQEiIyPpk1/BZ3Gx5RWUmpqqtm+xtraGqakpKC0tJaH/GZyfcMVHv2A2YURYbGysWtRpA0V9+45RLDU1NbT0wf9/LftpeAWhH+BMLiXhIRHnGCHwOjWuZeigQs5f2sBjukKh4FwzVaAjcTk182XkyMJEms4J39d2syLaqfEi4s+fP2BkZKRzwveF3qz8RhkfvIIwQvDUITVhtAqBN8qYszo5l0m5XWN8FaKjoznXMhXo2XxLB3MwpCXd4Hpfp6VD6vlLzPv66dSvr6+SZmIpfP5fIsjFxYVcDTNDSIx/C1xStre3ae0D1U0+np3wbOXq6irZZ4SAf4t3l3hbgheiLCpB+oJ+OrU+8SuIG4B/APQPuFYEDvz4AAAAAElFTkSuQmCC;" vertex="1" parent="zww3sfRDonu8iNrRwF99-1">
          <mxGeometry x="82" y="1010" width="36" height="53" as="geometry" />
        </mxCell>
        <mxCell id="zww3sfRDonu8iNrRwF99-49" value="" style="ellipse;html=1;shape=endState;fillColor=#000000;strokeColor=#000000;" vertex="1" parent="zww3sfRDonu8iNrRwF99-1">
          <mxGeometry x="80" y="1089" width="40" height="40" as="geometry" />
        </mxCell>
        <mxCell id="zww3sfRDonu8iNrRwF99-2" value="Recepcionista" style="swimlane;whiteSpace=wrap;html=1;" vertex="1" parent="1">
          <mxGeometry x="320" y="80" width="200" height="1160" as="geometry" />
        </mxCell>
        <mxCell id="zww3sfRDonu8iNrRwF99-7" style="edgeStyle=orthogonalEdgeStyle;rounded=0;orthogonalLoop=1;jettySize=auto;html=1;entryX=0.5;entryY=0;entryDx=0;entryDy=0;" edge="1" parent="zww3sfRDonu8iNrRwF99-2" source="zww3sfRDonu8iNrRwF99-4" target="zww3sfRDonu8iNrRwF99-6">
          <mxGeometry relative="1" as="geometry" />
        </mxCell>
        <mxCell id="zww3sfRDonu8iNrRwF99-4" value="" style="strokeWidth=2;html=1;shape=mxgraph.flowchart.start_2;whiteSpace=wrap;fillColor=#0D0D0D;" vertex="1" parent="zww3sfRDonu8iNrRwF99-2">
          <mxGeometry x="80" y="60" width="40" height="40" as="geometry" />
        </mxCell>
        <mxCell id="zww3sfRDonu8iNrRwF99-6" value="Ingresar Venta" style="rounded=1;whiteSpace=wrap;html=1;" vertex="1" parent="zww3sfRDonu8iNrRwF99-2">
          <mxGeometry x="40" y="130" width="120" height="40" as="geometry" />
        </mxCell>
        <mxCell id="zww3sfRDonu8iNrRwF99-5" value="" style="shape=image;verticalLabelPosition=bottom;labelBackgroundColor=default;verticalAlign=top;aspect=fixed;imageAspect=0;image=data:image/png,iVBORw0KGgoAAAANSUhEUgAAADcAAAAtCAYAAAAKlvO7AAAAAXNSR0IArs4c6QAAAARnQU1BAACxjwv8YQUAAAAJcEhZcwAADsMAAA7DAcdvqGQAAAv2SURBVGhD7VnZb1xXHf7uvbN4Zjxjj51437I6ruM0raOkkASJBgF9g5TSgkIDVPwBIFUqeQJekJAq8USBF1QkoA1VEai0USsloS0yjUrVNFsTx/G+jGfsWe3ZZ/h9Z+akdjx2JilSQ8QnHd+Ze86c+/vOb782igLcpzDL1/sS/yf3vwqjUCjcdz5nGEbper8FFNKpilwqncbJl/+E0Ow0ZmZnMTi4D9/6znfLs/cmqiYXjyfw1FPfRHB2CsuxGDpb2/C7l/+MZrnqDe41rCS3YUCx22148cXf4xfP/xJ7HxrExMQkhoeHkS8UkM1mIf5aXnlvoiI5Ck3heQLeujoc+Pxh/OjZ5+DftAkjIzdkLofl5WWEw2F1vVexxixJLJVKIZ/PKxVzslg0EI9G8c7Z0+jp6UJHVxdMu1PWFFCQde3t7XA47KUN7hIrzenTYEOzTCaTShtpCSYkmZLPyeU4Mtk0PPV1ePONNzAzNYlURuZlRGNxLCyGy7++O2iBeM3lcv81c1+lOW4aDAaV1vR3/aCMmOlHH36IsWsfY/DAfjRKUEHRRDolpD0e9PbuwKc593ffPouTL/0RpmWDZXfA6/Whvr4efn8DLJsdXV2daG5uhtfnRZ2vTj2zElZqbhU5ampWQr4Gp/RinuiVK1fgthnwNzQgZ1pw1tQim87ILsBDD+2F3WaVf1kt9KMN/PTnz+P1s0Pw1ci3XBpmPguH7JdJLcMy8nDUuMTObPDIM2tra9HW3oYdux5A38CD2NPfB9MsEVqXXCKRkIg4oSY5qDVeNcmxsTFEQgHs27sbk3ML8DW2IJfNqOCzb98gPG4R4I5Aq6DfpvH9n72K15Z2wmsrwJNdhDMXg5WJwpaPwZaNwiXPMVJyLxcB8ilkM8tw2E2ExS1+/avfYmD3brXjSnKrfI43M5mMGtSivnLQF6m9QGAOra2tyInpBkNBtYb+mZe5O4WIIX9tiEaTGI8aqLHbkbOciLtaEfD1YarpCzK+jMnWr+Fq95MY3nYMo9u+h6ltxxHqPY7E5kdEw0U4bZUz2qq7NTU1ijnJUBscWviU+Nb58+fR2Niocl0ul0VMIiiDD0nfHUonHFiMIZR1w1YswCqIv0sUtvI5ODMJ2HJ5GHkbTPq/EE85mxDxbEOwfhBBWyfq6xrR3ib+XwGryFmWpQiSEIMKyVFwXqPRCCanphBcjCASiYhfpPD+e0NYWk7KgRRgE6e/U5SoATOBecSZVgyn+IkBUw7YlHqemi3Iorwpc0WbPMeCxFL5nJZ1GdjCo2hp9sPjqy/vtBpr9NnAYFEmxCsHidIsXeLU0eUsQtElOFxePLB7QDkyzdntlkhQxgo3rgqTQUk1hkPYFlA0hJQQ4ihB/J6+KUGFn0ncgAV7MQsszaOlpaO0rALWkNskVYjTKXYfjytz5KAm7eIP9ZLn/L5aZCTvXbt8QSJZElHRIsP1uJRmk5OTiEkNqguA24NrikJO/NliaK/WvC04kEJxeQ7beraW763FGnI0zf7+fhUpWV6RJKMoNddG2xafoNZq6xpUTmT9uWegX2zfJ+uWcPLkK0Jy6mbE2hhUUUbIJZB31Mq3Un69HcRWYIpFmakwOrd0le+uxRpyRJ3UkwcPHhQ/silSS0tLInhcmWhB7OXytVGMzQRx8NBhfPupJ1VC5W/6+nbh2LFjKppWi4z4bGBJfEx8VpJO+e7G4LnZU1HJuUBLZ+VgQlQkR/j9fjz88MPKTOmHrBiczhrRrKm0+/jRr+PIkUelepAnKFCwggQkhxrVIhSOYzIhZmYr0qPKdzdGwZD1iWn45FCbW+6CHH3GNE2lBRIk2ToxPZZEjY1+iZ7Rm6XZavBe9QFleiGCcEYCBE20SnIwTBjJEJrqa+EXedbDurstLi4qk3S73fD5fIogfa6np1uZ3+LigirHdB2q/Edtp0d1mJgPI1MQYaVOre538hyJnMl4EN1ikpZocT1U3I2+xahHn2OUpE+RXJe0Or29vdi1axf27t2rzHN6enoFwTvH9HwCWdONnKQAyWilmxugKFpz5iQAxeak9eop362MiuQYHWlyFJ5Rj+ZJog6HQ33mPc6xgGWFwoh6O6xnqFOS41Djkz1JrJS4ifWDiwFHIQkrHUNHtyZXeW1FcsxthPYp+h8/U6NM7ivzGDXLw7gdKPKtIhSyKYwu5pBxeGHnYUoktsrao4ZWoigHSsImw052CS4jjbbu7vLkHZBTIV8eRgKakE7ounLRpkht6kS/PvhwrRPKUhKGjW4qNIHNyTH5ZiJruZERE80bEoFvIadhSKtlLgXhcdnQ2d5evql3Xo11yVF4EuRVvy9hviMJPa8jKs2UPloJKali5oILGJkM4Pr4NEKRuFpPLEZiMOf/je0zf0Dn1EvYGvg7WmMX4ZWWhyjY3NIPSxxVai9FYaYLIxFAc0M9GiRqE58c22qsIqdPVJsgCfBKQqFQSJVX7BioqZUE+f5E+6lGTgphvn4ICrF4YlmIRHBl+AZOnX4X56/dUGuC8wHMz07CnY+iLXUVHaEz6J7+C7ZMvYqOiVdQN3cGnuSkkBNNiunmTJdERymcY7NSMG+Srr1Uz1amJvdFuDUGy4aVqYBBhNPUHDuB0dFRbN68GTt37lQBhSbJwXUka4gpcf2ikJqQgyBhu8wZot20tC4FmU9l8qrD2N7Vhnf+cQav/e2v8NT64JLCu0FSjttFbdkwNjqGdDINq1FMz98Ky9uDZEM/4GtB4V+/wQ++shM/fPZEWeJPwOdry6hIbmZmRr1uYLDQmiPBQCCA8fFx7Jaul2mBpNgikaDd7hDTjOPUqVOq30vLb6hJ/tZhtyT5l1oTw7KjzudVXkhrGL5yCcNXr6qDyIk/ezxuqYj8SKWl+5DqxSs1lllIoyjlWY2/GZ5NbYiNX8WPn3sOR48eLQm8AivJWT8RqE8rwKCxsLCgFnGxHhSWiZ0aZNNKYlxDvyN8IjQP5dKli6hxudRa5sgm0bZLvi8s0JeKaGpqRv/AAA488jk89tXH8MVHv4TevgF4pQoKhxexMD+HdCqOrJGDJVpMJKR/E9/zQPrMeASpZArHnn563SZ1Q83Rry5evKgIEbxSAwwaDCx8l0KtHTp0SFUwbJFIlJrmGBkZwdDQe5idm1NlWlA0RDP+xuOP49Dhw1IkO9R3OotLzsXl9ojZFhEIseq5hKF33xazHMGYWEk0HEFR/DebEwuQZ7D7Zyl4+vRp5SK3grJuSI63Ll++fDN/8buOmkzY9EcGF75q27NnjyLHUTJPMR9qVEI2X00wwtISiI6OUmNZkLbJknmmbIc0u6l0Blcl2ISiMdhr3IjLc2yWmPlCGDOTo/j4ykeYnhpHt+Q17sd9Tpw4IY1qi9pvJW5LjqB2aGI0OS7R/sPNGVyoQZJkYb1161alSa4luVJlY6mOwel0qG7CxntChPNFIUeC/Nfgufc/xOun3sS16zdgl7VNIvCDgwekju1Avd2J5HIE42PD4o9JVRGxDOTYv3+/6lZuRVXkdPDgQhLjoAboR9QoNUgz5ZW9HB/Iea1FfSD8PV9FmEy+Qp7EeUiMyENDQzhz9p/Ytn07ekQrJNfe2anMbYn7hxfUoXlrvejf3ade23fKPP19PVRFjr5C39FCanL6VR9NlCR1mmhqasKABAkKfP36dSUA/ZGHwUPglXsQurunGe/csUv5EAWKx6OiYSiybK3q/Y3YsWO7mP9a81sPVZHjw0lOE9PkeOpM4jqZa+HpZ88884wiS4Lnzp1TUZUgURIhqAnuRQG4R2d7BxrFvChEW0e7tFQ9aBJfdsl+n4CzJYFvh6rI0bfodwwkHBSIOY8ENUkOrUWuf+KJJ25GMG77wQcf4K233lJpxev1qgDAg+BamteWLVvQKcGhWe5zfi20aNURI6oiRyHod7oE01cS41Und61FBpcjR45gu5jUrZiTlEBT5XqaL6NeZTKfHlWRo6boG9okKRiJ6bpSE+V9mibfhB04cEAJ/lliFTnRyBpyJENT45XgD7R5cmjC7MIvXLiAw5KYSVK/ivgsoYkRhpx+Rc1VixdeeEFFxePHj6tgce8A+A+rImmxLI2yWAAAAABJRU5ErkJggg==;" vertex="1" parent="zww3sfRDonu8iNrRwF99-2">
          <mxGeometry x="145" y="100" width="55" height="45" as="geometry" />
        </mxCell>
        <mxCell id="zww3sfRDonu8iNrRwF99-8" value="Inicio" style="text;html=1;align=center;verticalAlign=middle;resizable=0;points=[];autosize=1;strokeColor=none;fillColor=none;" vertex="1" parent="zww3sfRDonu8iNrRwF99-2">
          <mxGeometry x="75" y="38" width="50" height="30" as="geometry" />
        </mxCell>
        <mxCell id="zww3sfRDonu8iNrRwF99-16" style="edgeStyle=orthogonalEdgeStyle;rounded=0;orthogonalLoop=1;jettySize=auto;html=1;entryX=0.5;entryY=0;entryDx=0;entryDy=0;" edge="1" parent="zww3sfRDonu8iNrRwF99-2" source="zww3sfRDonu8iNrRwF99-11" target="zww3sfRDonu8iNrRwF99-13">
          <mxGeometry relative="1" as="geometry">
            <Array as="points">
              <mxPoint x="100" y="320" />
              <mxPoint x="100" y="320" />
            </Array>
          </mxGeometry>
        </mxCell>
        <mxCell id="zww3sfRDonu8iNrRwF99-11" value="Verificar Disponibilidad" style="rounded=1;whiteSpace=wrap;html=1;" vertex="1" parent="zww3sfRDonu8iNrRwF99-2">
          <mxGeometry x="14" y="260" width="120" height="40" as="geometry" />
        </mxCell>
        <mxCell id="zww3sfRDonu8iNrRwF99-12" value="" style="shape=image;verticalLabelPosition=bottom;labelBackgroundColor=default;verticalAlign=top;aspect=fixed;imageAspect=0;image=data:image/png,iVBORw0KGgoAAAANSUhEUgAAADcAAAAtCAYAAAAKlvO7AAAAAXNSR0IArs4c6QAAAARnQU1BAACxjwv8YQUAAAAJcEhZcwAADsMAAA7DAcdvqGQAAAv2SURBVGhD7VnZb1xXHf7uvbN4Zjxjj51437I6ruM0raOkkASJBgF9g5TSgkIDVPwBIFUqeQJekJAq8USBF1QkoA1VEai0USsloS0yjUrVNFsTx/G+jGfsWe3ZZ/h9Z+akdjx2JilSQ8QnHd+Ze86c+/vOb782igLcpzDL1/sS/yf3vwqjUCjcdz5nGEbper8FFNKpilwqncbJl/+E0Ow0ZmZnMTi4D9/6znfLs/cmqiYXjyfw1FPfRHB2CsuxGDpb2/C7l/+MZrnqDe41rCS3YUCx22148cXf4xfP/xJ7HxrExMQkhoeHkS8UkM1mIf5aXnlvoiI5Ck3heQLeujoc+Pxh/OjZ5+DftAkjIzdkLofl5WWEw2F1vVexxixJLJVKIZ/PKxVzslg0EI9G8c7Z0+jp6UJHVxdMu1PWFFCQde3t7XA47KUN7hIrzenTYEOzTCaTShtpCSYkmZLPyeU4Mtk0PPV1ePONNzAzNYlURuZlRGNxLCyGy7++O2iBeM3lcv81c1+lOW4aDAaV1vR3/aCMmOlHH36IsWsfY/DAfjRKUEHRRDolpD0e9PbuwKc593ffPouTL/0RpmWDZXfA6/Whvr4efn8DLJsdXV2daG5uhtfnRZ2vTj2zElZqbhU5ampWQr4Gp/RinuiVK1fgthnwNzQgZ1pw1tQim87ILsBDD+2F3WaVf1kt9KMN/PTnz+P1s0Pw1ci3XBpmPguH7JdJLcMy8nDUuMTObPDIM2tra9HW3oYdux5A38CD2NPfB9MsEVqXXCKRkIg4oSY5qDVeNcmxsTFEQgHs27sbk3ML8DW2IJfNqOCzb98gPG4R4I5Aq6DfpvH9n72K15Z2wmsrwJNdhDMXg5WJwpaPwZaNwiXPMVJyLxcB8ilkM8tw2E2ExS1+/avfYmD3brXjSnKrfI43M5mMGtSivnLQF6m9QGAOra2tyInpBkNBtYb+mZe5O4WIIX9tiEaTGI8aqLHbkbOciLtaEfD1YarpCzK+jMnWr+Fq95MY3nYMo9u+h6ltxxHqPY7E5kdEw0U4bZUz2qq7NTU1ijnJUBscWviU+Nb58+fR2Niocl0ul0VMIiiDD0nfHUonHFiMIZR1w1YswCqIv0sUtvI5ODMJ2HJ5GHkbTPq/EE85mxDxbEOwfhBBWyfq6xrR3ib+XwGryFmWpQiSEIMKyVFwXqPRCCanphBcjCASiYhfpPD+e0NYWk7KgRRgE6e/U5SoATOBecSZVgyn+IkBUw7YlHqemi3Iorwpc0WbPMeCxFL5nJZ1GdjCo2hp9sPjqy/vtBpr9NnAYFEmxCsHidIsXeLU0eUsQtElOFxePLB7QDkyzdntlkhQxgo3rgqTQUk1hkPYFlA0hJQQ4ihB/J6+KUGFn0ncgAV7MQsszaOlpaO0rALWkNskVYjTKXYfjytz5KAm7eIP9ZLn/L5aZCTvXbt8QSJZElHRIsP1uJRmk5OTiEkNqguA24NrikJO/NliaK/WvC04kEJxeQ7beraW763FGnI0zf7+fhUpWV6RJKMoNddG2xafoNZq6xpUTmT9uWegX2zfJ+uWcPLkK0Jy6mbE2hhUUUbIJZB31Mq3Un69HcRWYIpFmakwOrd0le+uxRpyRJ3UkwcPHhQ/silSS0tLInhcmWhB7OXytVGMzQRx8NBhfPupJ1VC5W/6+nbh2LFjKppWi4z4bGBJfEx8VpJO+e7G4LnZU1HJuUBLZ+VgQlQkR/j9fjz88MPKTOmHrBiczhrRrKm0+/jRr+PIkUelepAnKFCwggQkhxrVIhSOYzIhZmYr0qPKdzdGwZD1iWn45FCbW+6CHH3GNE2lBRIk2ToxPZZEjY1+iZ7Rm6XZavBe9QFleiGCcEYCBE20SnIwTBjJEJrqa+EXedbDurstLi4qk3S73fD5fIogfa6np1uZ3+LigirHdB2q/Edtp0d1mJgPI1MQYaVOre538hyJnMl4EN1ikpZocT1U3I2+xahHn2OUpE+RXJe0Or29vdi1axf27t2rzHN6enoFwTvH9HwCWdONnKQAyWilmxugKFpz5iQAxeak9eop362MiuQYHWlyFJ5Rj+ZJog6HQ33mPc6xgGWFwoh6O6xnqFOS41Djkz1JrJS4ifWDiwFHIQkrHUNHtyZXeW1FcsxthPYp+h8/U6NM7ivzGDXLw7gdKPKtIhSyKYwu5pBxeGHnYUoktsrao4ZWoigHSsImw052CS4jjbbu7vLkHZBTIV8eRgKakE7ounLRpkht6kS/PvhwrRPKUhKGjW4qNIHNyTH5ZiJruZERE80bEoFvIadhSKtlLgXhcdnQ2d5evql3Xo11yVF4EuRVvy9hviMJPa8jKs2UPloJKali5oILGJkM4Pr4NEKRuFpPLEZiMOf/je0zf0Dn1EvYGvg7WmMX4ZWWhyjY3NIPSxxVai9FYaYLIxFAc0M9GiRqE58c22qsIqdPVJsgCfBKQqFQSJVX7BioqZUE+f5E+6lGTgphvn4ICrF4YlmIRHBl+AZOnX4X56/dUGuC8wHMz07CnY+iLXUVHaEz6J7+C7ZMvYqOiVdQN3cGnuSkkBNNiunmTJdERymcY7NSMG+Srr1Uz1amJvdFuDUGy4aVqYBBhNPUHDuB0dFRbN68GTt37lQBhSbJwXUka4gpcf2ikJqQgyBhu8wZot20tC4FmU9l8qrD2N7Vhnf+cQav/e2v8NT64JLCu0FSjttFbdkwNjqGdDINq1FMz98Ky9uDZEM/4GtB4V+/wQ++shM/fPZEWeJPwOdry6hIbmZmRr1uYLDQmiPBQCCA8fFx7Jaul2mBpNgikaDd7hDTjOPUqVOq30vLb6hJ/tZhtyT5l1oTw7KjzudVXkhrGL5yCcNXr6qDyIk/ezxuqYj8SKWl+5DqxSs1lllIoyjlWY2/GZ5NbYiNX8WPn3sOR48eLQm8AivJWT8RqE8rwKCxsLCgFnGxHhSWiZ0aZNNKYlxDvyN8IjQP5dKli6hxudRa5sgm0bZLvi8s0JeKaGpqRv/AAA488jk89tXH8MVHv4TevgF4pQoKhxexMD+HdCqOrJGDJVpMJKR/E9/zQPrMeASpZArHnn563SZ1Q83Rry5evKgIEbxSAwwaDCx8l0KtHTp0SFUwbJFIlJrmGBkZwdDQe5idm1NlWlA0RDP+xuOP49Dhw1IkO9R3OotLzsXl9ojZFhEIseq5hKF33xazHMGYWEk0HEFR/DebEwuQZ7D7Zyl4+vRp5SK3grJuSI63Ll++fDN/8buOmkzY9EcGF75q27NnjyLHUTJPMR9qVEI2X00wwtISiI6OUmNZkLbJknmmbIc0u6l0Blcl2ISiMdhr3IjLc2yWmPlCGDOTo/j4ykeYnhpHt+Q17sd9Tpw4IY1qi9pvJW5LjqB2aGI0OS7R/sPNGVyoQZJkYb1161alSa4luVJlY6mOwel0qG7CxntChPNFIUeC/Nfgufc/xOun3sS16zdgl7VNIvCDgwekju1Avd2J5HIE42PD4o9JVRGxDOTYv3+/6lZuRVXkdPDgQhLjoAboR9QoNUgz5ZW9HB/Iea1FfSD8PV9FmEy+Qp7EeUiMyENDQzhz9p/Ytn07ekQrJNfe2anMbYn7hxfUoXlrvejf3ade23fKPP19PVRFjr5C39FCanL6VR9NlCR1mmhqasKABAkKfP36dSUA/ZGHwUPglXsQurunGe/csUv5EAWKx6OiYSiybK3q/Y3YsWO7mP9a81sPVZHjw0lOE9PkeOpM4jqZa+HpZ88884wiS4Lnzp1TUZUgURIhqAnuRQG4R2d7BxrFvChEW0e7tFQ9aBJfdsl+n4CzJYFvh6rI0bfodwwkHBSIOY8ENUkOrUWuf+KJJ25GMG77wQcf4K233lJpxev1qgDAg+BamteWLVvQKcGhWe5zfi20aNURI6oiRyHod7oE01cS41Und61FBpcjR45gu5jUrZiTlEBT5XqaL6NeZTKfHlWRo6boG9okKRiJ6bpSE+V9mibfhB04cEAJ/lliFTnRyBpyJENT45XgD7R5cmjC7MIvXLiAw5KYSVK/ivgsoYkRhpx+Rc1VixdeeEFFxePHj6tgce8A+A+rImmxLI2yWAAAAABJRU5ErkJggg==;" vertex="1" parent="zww3sfRDonu8iNrRwF99-2">
          <mxGeometry x="119" y="230" width="55" height="45" as="geometry" />
        </mxCell>
        <mxCell id="zww3sfRDonu8iNrRwF99-21" value="" style="edgeStyle=orthogonalEdgeStyle;rounded=0;orthogonalLoop=1;jettySize=auto;html=1;entryX=0.5;entryY=0;entryDx=0;entryDy=0;" edge="1" parent="zww3sfRDonu8iNrRwF99-2" source="zww3sfRDonu8iNrRwF99-13" target="zww3sfRDonu8iNrRwF99-23">
          <mxGeometry relative="1" as="geometry">
            <mxPoint x="100" y="410" as="targetPoint" />
            <mxPoint as="offset" />
          </mxGeometry>
        </mxCell>
        <mxCell id="zww3sfRDonu8iNrRwF99-13" value="" style="rhombus;whiteSpace=wrap;html=1;fillColor=#d5e8d4;strokeColor=#82b366;" vertex="1" parent="zww3sfRDonu8iNrRwF99-2">
          <mxGeometry x="80" y="330" width="40" height="40" as="geometry" />
        </mxCell>
        <mxCell id="zww3sfRDonu8iNrRwF99-15" value="Hay Stock?" style="text;html=1;align=center;verticalAlign=middle;resizable=0;points=[];autosize=1;strokeColor=none;fillColor=none;" vertex="1" parent="zww3sfRDonu8iNrRwF99-2">
          <mxGeometry x="10" y="335" width="80" height="30" as="geometry" />
        </mxCell>
        <mxCell id="zww3sfRDonu8iNrRwF99-22" value="Si" style="text;html=1;align=center;verticalAlign=middle;resizable=0;points=[];autosize=1;strokeColor=none;fillColor=none;" vertex="1" parent="zww3sfRDonu8iNrRwF99-2">
          <mxGeometry x="75" y="365" width="30" height="30" as="geometry" />
        </mxCell>
        <mxCell id="zww3sfRDonu8iNrRwF99-27" style="edgeStyle=orthogonalEdgeStyle;rounded=0;orthogonalLoop=1;jettySize=auto;html=1;entryX=0.5;entryY=0;entryDx=0;entryDy=0;" edge="1" parent="zww3sfRDonu8iNrRwF99-2" source="zww3sfRDonu8iNrRwF99-23" target="zww3sfRDonu8iNrRwF99-25">
          <mxGeometry relative="1" as="geometry" />
        </mxCell>
        <mxCell id="zww3sfRDonu8iNrRwF99-23" value="&amp;lt;&amp;lt;Datastore&amp;gt;&amp;gt;&lt;br&gt;Producto" style="rounded=0;whiteSpace=wrap;html=1;fillColor=#f5f5f5;fontColor=#333333;strokeColor=#666666;" vertex="1" parent="zww3sfRDonu8iNrRwF99-2">
          <mxGeometry x="40" y="400" width="120" height="40" as="geometry" />
        </mxCell>
        <mxCell id="zww3sfRDonu8iNrRwF99-29" style="edgeStyle=orthogonalEdgeStyle;rounded=0;orthogonalLoop=1;jettySize=auto;html=1;entryX=0.5;entryY=0;entryDx=0;entryDy=0;" edge="1" parent="zww3sfRDonu8iNrRwF99-2" source="zww3sfRDonu8iNrRwF99-25" target="zww3sfRDonu8iNrRwF99-28">
          <mxGeometry relative="1" as="geometry" />
        </mxCell>
        <mxCell id="zww3sfRDonu8iNrRwF99-25" value="Llenar orden de compra" style="rounded=1;whiteSpace=wrap;html=1;" vertex="1" parent="zww3sfRDonu8iNrRwF99-2">
          <mxGeometry x="40" y="480" width="120" height="40" as="geometry" />
        </mxCell>
        <mxCell id="zww3sfRDonu8iNrRwF99-26" value="" style="shape=image;verticalLabelPosition=bottom;labelBackgroundColor=default;verticalAlign=top;aspect=fixed;imageAspect=0;image=data:image/png,iVBORw0KGgoAAAANSUhEUgAAADcAAAAtCAYAAAAKlvO7AAAAAXNSR0IArs4c6QAAAARnQU1BAACxjwv8YQUAAAAJcEhZcwAADsMAAA7DAcdvqGQAAAv2SURBVGhD7VnZb1xXHf7uvbN4Zjxjj51437I6ruM0raOkkASJBgF9g5TSgkIDVPwBIFUqeQJekJAq8USBF1QkoA1VEai0USsloS0yjUrVNFsTx/G+jGfsWe3ZZ/h9Z+akdjx2JilSQ8QnHd+Ze86c+/vOb782igLcpzDL1/sS/yf3vwqjUCjcdz5nGEbper8FFNKpilwqncbJl/+E0Ow0ZmZnMTi4D9/6znfLs/cmqiYXjyfw1FPfRHB2CsuxGDpb2/C7l/+MZrnqDe41rCS3YUCx22148cXf4xfP/xJ7HxrExMQkhoeHkS8UkM1mIf5aXnlvoiI5Ck3heQLeujoc+Pxh/OjZ5+DftAkjIzdkLofl5WWEw2F1vVexxixJLJVKIZ/PKxVzslg0EI9G8c7Z0+jp6UJHVxdMu1PWFFCQde3t7XA47KUN7hIrzenTYEOzTCaTShtpCSYkmZLPyeU4Mtk0PPV1ePONNzAzNYlURuZlRGNxLCyGy7++O2iBeM3lcv81c1+lOW4aDAaV1vR3/aCMmOlHH36IsWsfY/DAfjRKUEHRRDolpD0e9PbuwKc593ffPouTL/0RpmWDZXfA6/Whvr4efn8DLJsdXV2daG5uhtfnRZ2vTj2zElZqbhU5ampWQr4Gp/RinuiVK1fgthnwNzQgZ1pw1tQim87ILsBDD+2F3WaVf1kt9KMN/PTnz+P1s0Pw1ci3XBpmPguH7JdJLcMy8nDUuMTObPDIM2tra9HW3oYdux5A38CD2NPfB9MsEVqXXCKRkIg4oSY5qDVeNcmxsTFEQgHs27sbk3ML8DW2IJfNqOCzb98gPG4R4I5Aq6DfpvH9n72K15Z2wmsrwJNdhDMXg5WJwpaPwZaNwiXPMVJyLxcB8ilkM8tw2E2ExS1+/avfYmD3brXjSnKrfI43M5mMGtSivnLQF6m9QGAOra2tyInpBkNBtYb+mZe5O4WIIX9tiEaTGI8aqLHbkbOciLtaEfD1YarpCzK+jMnWr+Fq95MY3nYMo9u+h6ltxxHqPY7E5kdEw0U4bZUz2qq7NTU1ijnJUBscWviU+Nb58+fR2Niocl0ul0VMIiiDD0nfHUonHFiMIZR1w1YswCqIv0sUtvI5ODMJ2HJ5GHkbTPq/EE85mxDxbEOwfhBBWyfq6xrR3ib+XwGryFmWpQiSEIMKyVFwXqPRCCanphBcjCASiYhfpPD+e0NYWk7KgRRgE6e/U5SoATOBecSZVgyn+IkBUw7YlHqemi3Iorwpc0WbPMeCxFL5nJZ1GdjCo2hp9sPjqy/vtBpr9NnAYFEmxCsHidIsXeLU0eUsQtElOFxePLB7QDkyzdntlkhQxgo3rgqTQUk1hkPYFlA0hJQQ4ihB/J6+KUGFn0ncgAV7MQsszaOlpaO0rALWkNskVYjTKXYfjytz5KAm7eIP9ZLn/L5aZCTvXbt8QSJZElHRIsP1uJRmk5OTiEkNqguA24NrikJO/NliaK/WvC04kEJxeQ7beraW763FGnI0zf7+fhUpWV6RJKMoNddG2xafoNZq6xpUTmT9uWegX2zfJ+uWcPLkK0Jy6mbE2hhUUUbIJZB31Mq3Un69HcRWYIpFmakwOrd0le+uxRpyRJ3UkwcPHhQ/silSS0tLInhcmWhB7OXytVGMzQRx8NBhfPupJ1VC5W/6+nbh2LFjKppWi4z4bGBJfEx8VpJO+e7G4LnZU1HJuUBLZ+VgQlQkR/j9fjz88MPKTOmHrBiczhrRrKm0+/jRr+PIkUelepAnKFCwggQkhxrVIhSOYzIhZmYr0qPKdzdGwZD1iWn45FCbW+6CHH3GNE2lBRIk2ToxPZZEjY1+iZ7Rm6XZavBe9QFleiGCcEYCBE20SnIwTBjJEJrqa+EXedbDurstLi4qk3S73fD5fIogfa6np1uZ3+LigirHdB2q/Edtp0d1mJgPI1MQYaVOre538hyJnMl4EN1ikpZocT1U3I2+xahHn2OUpE+RXJe0Or29vdi1axf27t2rzHN6enoFwTvH9HwCWdONnKQAyWilmxugKFpz5iQAxeak9eop362MiuQYHWlyFJ5Rj+ZJog6HQ33mPc6xgGWFwoh6O6xnqFOS41Djkz1JrJS4ifWDiwFHIQkrHUNHtyZXeW1FcsxthPYp+h8/U6NM7ivzGDXLw7gdKPKtIhSyKYwu5pBxeGHnYUoktsrao4ZWoigHSsImw052CS4jjbbu7vLkHZBTIV8eRgKakE7ounLRpkht6kS/PvhwrRPKUhKGjW4qNIHNyTH5ZiJruZERE80bEoFvIadhSKtlLgXhcdnQ2d5evql3Xo11yVF4EuRVvy9hviMJPa8jKs2UPloJKali5oILGJkM4Pr4NEKRuFpPLEZiMOf/je0zf0Dn1EvYGvg7WmMX4ZWWhyjY3NIPSxxVai9FYaYLIxFAc0M9GiRqE58c22qsIqdPVJsgCfBKQqFQSJVX7BioqZUE+f5E+6lGTgphvn4ICrF4YlmIRHBl+AZOnX4X56/dUGuC8wHMz07CnY+iLXUVHaEz6J7+C7ZMvYqOiVdQN3cGnuSkkBNNiunmTJdERymcY7NSMG+Srr1Uz1amJvdFuDUGy4aVqYBBhNPUHDuB0dFRbN68GTt37lQBhSbJwXUka4gpcf2ikJqQgyBhu8wZot20tC4FmU9l8qrD2N7Vhnf+cQav/e2v8NT64JLCu0FSjttFbdkwNjqGdDINq1FMz98Ky9uDZEM/4GtB4V+/wQ++shM/fPZEWeJPwOdry6hIbmZmRr1uYLDQmiPBQCCA8fFx7Jaul2mBpNgikaDd7hDTjOPUqVOq30vLb6hJ/tZhtyT5l1oTw7KjzudVXkhrGL5yCcNXr6qDyIk/ezxuqYj8SKWl+5DqxSs1lllIoyjlWY2/GZ5NbYiNX8WPn3sOR48eLQm8AivJWT8RqE8rwKCxsLCgFnGxHhSWiZ0aZNNKYlxDvyN8IjQP5dKli6hxudRa5sgm0bZLvi8s0JeKaGpqRv/AAA488jk89tXH8MVHv4TevgF4pQoKhxexMD+HdCqOrJGDJVpMJKR/E9/zQPrMeASpZArHnn563SZ1Q83Rry5evKgIEbxSAwwaDCx8l0KtHTp0SFUwbJFIlJrmGBkZwdDQe5idm1NlWlA0RDP+xuOP49Dhw1IkO9R3OotLzsXl9ojZFhEIseq5hKF33xazHMGYWEk0HEFR/DebEwuQZ7D7Zyl4+vRp5SK3grJuSI63Ll++fDN/8buOmkzY9EcGF75q27NnjyLHUTJPMR9qVEI2X00wwtISiI6OUmNZkLbJknmmbIc0u6l0Blcl2ISiMdhr3IjLc2yWmPlCGDOTo/j4ykeYnhpHt+Q17sd9Tpw4IY1qi9pvJW5LjqB2aGI0OS7R/sPNGVyoQZJkYb1161alSa4luVJlY6mOwel0qG7CxntChPNFIUeC/Nfgufc/xOun3sS16zdgl7VNIvCDgwekju1Avd2J5HIE42PD4o9JVRGxDOTYv3+/6lZuRVXkdPDgQhLjoAboR9QoNUgz5ZW9HB/Iea1FfSD8PV9FmEy+Qp7EeUiMyENDQzhz9p/Ytn07ekQrJNfe2anMbYn7hxfUoXlrvejf3ade23fKPP19PVRFjr5C39FCanL6VR9NlCR1mmhqasKABAkKfP36dSUA/ZGHwUPglXsQurunGe/csUv5EAWKx6OiYSiybK3q/Y3YsWO7mP9a81sPVZHjw0lOE9PkeOpM4jqZa+HpZ88884wiS4Lnzp1TUZUgURIhqAnuRQG4R2d7BxrFvChEW0e7tFQ9aBJfdsl+n4CzJYFvh6rI0bfodwwkHBSIOY8ENUkOrUWuf+KJJ25GMG77wQcf4K233lJpxev1qgDAg+BamteWLVvQKcGhWe5zfi20aNURI6oiRyHod7oE01cS41Und61FBpcjR45gu5jUrZiTlEBT5XqaL6NeZTKfHlWRo6boG9okKRiJ6bpSE+V9mibfhB04cEAJ/lliFTnRyBpyJENT45XgD7R5cmjC7MIvXLiAw5KYSVK/ivgsoYkRhpx+Rc1VixdeeEFFxePHj6tgce8A+A+rImmxLI2yWAAAAABJRU5ErkJggg==;" vertex="1" parent="zww3sfRDonu8iNrRwF99-2">
          <mxGeometry x="145" y="450" width="55" height="45" as="geometry" />
        </mxCell>
        <mxCell id="zww3sfRDonu8iNrRwF99-33" style="edgeStyle=orthogonalEdgeStyle;rounded=0;orthogonalLoop=1;jettySize=auto;html=1;entryX=0.5;entryY=0;entryDx=0;entryDy=0;" edge="1" parent="zww3sfRDonu8iNrRwF99-2" source="zww3sfRDonu8iNrRwF99-28" target="zww3sfRDonu8iNrRwF99-31">
          <mxGeometry relative="1" as="geometry" />
        </mxCell>
        <mxCell id="zww3sfRDonu8iNrRwF99-28" value="&amp;lt;&amp;lt;Datastore&amp;gt;&amp;gt;&lt;br&gt;Orden de compra" style="rounded=0;whiteSpace=wrap;html=1;fillColor=#f5f5f5;fontColor=#333333;strokeColor=#666666;" vertex="1" parent="zww3sfRDonu8iNrRwF99-2">
          <mxGeometry x="40" y="560" width="120" height="40" as="geometry" />
        </mxCell>
        <mxCell id="zww3sfRDonu8iNrRwF99-31" value="Cobrar Venta" style="rounded=1;whiteSpace=wrap;html=1;" vertex="1" parent="zww3sfRDonu8iNrRwF99-2">
          <mxGeometry x="40" y="640" width="120" height="40" as="geometry" />
        </mxCell>
        <mxCell id="zww3sfRDonu8iNrRwF99-32" value="" style="shape=image;verticalLabelPosition=bottom;labelBackgroundColor=default;verticalAlign=top;aspect=fixed;imageAspect=0;image=data:image/png,iVBORw0KGgoAAAANSUhEUgAAADcAAAAtCAYAAAAKlvO7AAAAAXNSR0IArs4c6QAAAARnQU1BAACxjwv8YQUAAAAJcEhZcwAADsMAAA7DAcdvqGQAAAv2SURBVGhD7VnZb1xXHf7uvbN4Zjxjj51437I6ruM0raOkkASJBgF9g5TSgkIDVPwBIFUqeQJekJAq8USBF1QkoA1VEai0USsloS0yjUrVNFsTx/G+jGfsWe3ZZ/h9Z+akdjx2JilSQ8QnHd+Ze86c+/vOb782igLcpzDL1/sS/yf3vwqjUCjcdz5nGEbper8FFNKpilwqncbJl/+E0Ow0ZmZnMTi4D9/6znfLs/cmqiYXjyfw1FPfRHB2CsuxGDpb2/C7l/+MZrnqDe41rCS3YUCx22148cXf4xfP/xJ7HxrExMQkhoeHkS8UkM1mIf5aXnlvoiI5Ck3heQLeujoc+Pxh/OjZ5+DftAkjIzdkLofl5WWEw2F1vVexxixJLJVKIZ/PKxVzslg0EI9G8c7Z0+jp6UJHVxdMu1PWFFCQde3t7XA47KUN7hIrzenTYEOzTCaTShtpCSYkmZLPyeU4Mtk0PPV1ePONNzAzNYlURuZlRGNxLCyGy7++O2iBeM3lcv81c1+lOW4aDAaV1vR3/aCMmOlHH36IsWsfY/DAfjRKUEHRRDolpD0e9PbuwKc593ffPouTL/0RpmWDZXfA6/Whvr4efn8DLJsdXV2daG5uhtfnRZ2vTj2zElZqbhU5ampWQr4Gp/RinuiVK1fgthnwNzQgZ1pw1tQim87ILsBDD+2F3WaVf1kt9KMN/PTnz+P1s0Pw1ci3XBpmPguH7JdJLcMy8nDUuMTObPDIM2tra9HW3oYdux5A38CD2NPfB9MsEVqXXCKRkIg4oSY5qDVeNcmxsTFEQgHs27sbk3ML8DW2IJfNqOCzb98gPG4R4I5Aq6DfpvH9n72K15Z2wmsrwJNdhDMXg5WJwpaPwZaNwiXPMVJyLxcB8ilkM8tw2E2ExS1+/avfYmD3brXjSnKrfI43M5mMGtSivnLQF6m9QGAOra2tyInpBkNBtYb+mZe5O4WIIX9tiEaTGI8aqLHbkbOciLtaEfD1YarpCzK+jMnWr+Fq95MY3nYMo9u+h6ltxxHqPY7E5kdEw0U4bZUz2qq7NTU1ijnJUBscWviU+Nb58+fR2Niocl0ul0VMIiiDD0nfHUonHFiMIZR1w1YswCqIv0sUtvI5ODMJ2HJ5GHkbTPq/EE85mxDxbEOwfhBBWyfq6xrR3ib+XwGryFmWpQiSEIMKyVFwXqPRCCanphBcjCASiYhfpPD+e0NYWk7KgRRgE6e/U5SoATOBecSZVgyn+IkBUw7YlHqemi3Iorwpc0WbPMeCxFL5nJZ1GdjCo2hp9sPjqy/vtBpr9NnAYFEmxCsHidIsXeLU0eUsQtElOFxePLB7QDkyzdntlkhQxgo3rgqTQUk1hkPYFlA0hJQQ4ihB/J6+KUGFn0ncgAV7MQsszaOlpaO0rALWkNskVYjTKXYfjytz5KAm7eIP9ZLn/L5aZCTvXbt8QSJZElHRIsP1uJRmk5OTiEkNqguA24NrikJO/NliaK/WvC04kEJxeQ7beraW763FGnI0zf7+fhUpWV6RJKMoNddG2xafoNZq6xpUTmT9uWegX2zfJ+uWcPLkK0Jy6mbE2hhUUUbIJZB31Mq3Un69HcRWYIpFmakwOrd0le+uxRpyRJ3UkwcPHhQ/silSS0tLInhcmWhB7OXytVGMzQRx8NBhfPupJ1VC5W/6+nbh2LFjKppWi4z4bGBJfEx8VpJO+e7G4LnZU1HJuUBLZ+VgQlQkR/j9fjz88MPKTOmHrBiczhrRrKm0+/jRr+PIkUelepAnKFCwggQkhxrVIhSOYzIhZmYr0qPKdzdGwZD1iWn45FCbW+6CHH3GNE2lBRIk2ToxPZZEjY1+iZ7Rm6XZavBe9QFleiGCcEYCBE20SnIwTBjJEJrqa+EXedbDurstLi4qk3S73fD5fIogfa6np1uZ3+LigirHdB2q/Edtp0d1mJgPI1MQYaVOre538hyJnMl4EN1ikpZocT1U3I2+xahHn2OUpE+RXJe0Or29vdi1axf27t2rzHN6enoFwTvH9HwCWdONnKQAyWilmxugKFpz5iQAxeak9eop362MiuQYHWlyFJ5Rj+ZJog6HQ33mPc6xgGWFwoh6O6xnqFOS41Djkz1JrJS4ifWDiwFHIQkrHUNHtyZXeW1FcsxthPYp+h8/U6NM7ivzGDXLw7gdKPKtIhSyKYwu5pBxeGHnYUoktsrao4ZWoigHSsImw052CS4jjbbu7vLkHZBTIV8eRgKakE7ounLRpkht6kS/PvhwrRPKUhKGjW4qNIHNyTH5ZiJruZERE80bEoFvIadhSKtlLgXhcdnQ2d5evql3Xo11yVF4EuRVvy9hviMJPa8jKs2UPloJKali5oILGJkM4Pr4NEKRuFpPLEZiMOf/je0zf0Dn1EvYGvg7WmMX4ZWWhyjY3NIPSxxVai9FYaYLIxFAc0M9GiRqE58c22qsIqdPVJsgCfBKQqFQSJVX7BioqZUE+f5E+6lGTgphvn4ICrF4YlmIRHBl+AZOnX4X56/dUGuC8wHMz07CnY+iLXUVHaEz6J7+C7ZMvYqOiVdQN3cGnuSkkBNNiunmTJdERymcY7NSMG+Srr1Uz1amJvdFuDUGy4aVqYBBhNPUHDuB0dFRbN68GTt37lQBhSbJwXUka4gpcf2ikJqQgyBhu8wZot20tC4FmU9l8qrD2N7Vhnf+cQav/e2v8NT64JLCu0FSjttFbdkwNjqGdDINq1FMz98Ky9uDZEM/4GtB4V+/wQ++shM/fPZEWeJPwOdry6hIbmZmRr1uYLDQmiPBQCCA8fFx7Jaul2mBpNgikaDd7hDTjOPUqVOq30vLb6hJ/tZhtyT5l1oTw7KjzudVXkhrGL5yCcNXr6qDyIk/ezxuqYj8SKWl+5DqxSs1lllIoyjlWY2/GZ5NbYiNX8WPn3sOR48eLQm8AivJWT8RqE8rwKCxsLCgFnGxHhSWiZ0aZNNKYlxDvyN8IjQP5dKli6hxudRa5sgm0bZLvi8s0JeKaGpqRv/AAA488jk89tXH8MVHv4TevgF4pQoKhxexMD+HdCqOrJGDJVpMJKR/E9/zQPrMeASpZArHnn563SZ1Q83Rry5evKgIEbxSAwwaDCx8l0KtHTp0SFUwbJFIlJrmGBkZwdDQe5idm1NlWlA0RDP+xuOP49Dhw1IkO9R3OotLzsXl9ojZFhEIseq5hKF33xazHMGYWEk0HEFR/DebEwuQZ7D7Zyl4+vRp5SK3grJuSI63Ll++fDN/8buOmkzY9EcGF75q27NnjyLHUTJPMR9qVEI2X00wwtISiI6OUmNZkLbJknmmbIc0u6l0Blcl2ISiMdhr3IjLc2yWmPlCGDOTo/j4ykeYnhpHt+Q17sd9Tpw4IY1qi9pvJW5LjqB2aGI0OS7R/sPNGVyoQZJkYb1161alSa4luVJlY6mOwel0qG7CxntChPNFIUeC/Nfgufc/xOun3sS16zdgl7VNIvCDgwekju1Avd2J5HIE42PD4o9JVRGxDOTYv3+/6lZuRVXkdPDgQhLjoAboR9QoNUgz5ZW9HB/Iea1FfSD8PV9FmEy+Qp7EeUiMyENDQzhz9p/Ytn07ekQrJNfe2anMbYn7hxfUoXlrvejf3ade23fKPP19PVRFjr5C39FCanL6VR9NlCR1mmhqasKABAkKfP36dSUA/ZGHwUPglXsQurunGe/csUv5EAWKx6OiYSiybK3q/Y3YsWO7mP9a81sPVZHjw0lOE9PkeOpM4jqZa+HpZ88884wiS4Lnzp1TUZUgURIhqAnuRQG4R2d7BxrFvChEW0e7tFQ9aBJfdsl+n4CzJYFvh6rI0bfodwwkHBSIOY8ENUkOrUWuf+KJJ25GMG77wQcf4K233lJpxev1qgDAg+BamteWLVvQKcGhWe5zfi20aNURI6oiRyHod7oE01cS41Und61FBpcjR45gu5jUrZiTlEBT5XqaL6NeZTKfHlWRo6boG9okKRiJ6bpSE+V9mibfhB04cEAJ/lliFTnRyBpyJENT45XgD7R5cmjC7MIvXLiAw5KYSVK/ivgsoYkRhpx+Rc1VixdeeEFFxePHj6tgce8A+A+rImmxLI2yWAAAAABJRU5ErkJggg==;" vertex="1" parent="zww3sfRDonu8iNrRwF99-2">
          <mxGeometry x="145" y="610" width="55" height="45" as="geometry" />
        </mxCell>
        <mxCell id="zww3sfRDonu8iNrRwF99-35" value="Realizar pago" style="rounded=1;whiteSpace=wrap;html=1;" vertex="1" parent="zww3sfRDonu8iNrRwF99-2">
          <mxGeometry x="40" y="750" width="120" height="40" as="geometry" />
        </mxCell>
        <mxCell id="zww3sfRDonu8iNrRwF99-36" value="" style="shape=image;verticalLabelPosition=bottom;labelBackgroundColor=default;verticalAlign=top;aspect=fixed;imageAspect=0;image=data:image/png,iVBORw0KGgoAAAANSUhEUgAAADcAAAAtCAYAAAAKlvO7AAAAAXNSR0IArs4c6QAAAARnQU1BAACxjwv8YQUAAAAJcEhZcwAADsMAAA7DAcdvqGQAAAv2SURBVGhD7VnZb1xXHf7uvbN4Zjxjj51437I6ruM0raOkkASJBgF9g5TSgkIDVPwBIFUqeQJekJAq8USBF1QkoA1VEai0USsloS0yjUrVNFsTx/G+jGfsWe3ZZ/h9Z+akdjx2JilSQ8QnHd+Ze86c+/vOb782igLcpzDL1/sS/yf3vwqjUCjcdz5nGEbper8FFNKpilwqncbJl/+E0Ow0ZmZnMTi4D9/6znfLs/cmqiYXjyfw1FPfRHB2CsuxGDpb2/C7l/+MZrnqDe41rCS3YUCx22148cXf4xfP/xJ7HxrExMQkhoeHkS8UkM1mIf5aXnlvoiI5Ck3heQLeujoc+Pxh/OjZ5+DftAkjIzdkLofl5WWEw2F1vVexxixJLJVKIZ/PKxVzslg0EI9G8c7Z0+jp6UJHVxdMu1PWFFCQde3t7XA47KUN7hIrzenTYEOzTCaTShtpCSYkmZLPyeU4Mtk0PPV1ePONNzAzNYlURuZlRGNxLCyGy7++O2iBeM3lcv81c1+lOW4aDAaV1vR3/aCMmOlHH36IsWsfY/DAfjRKUEHRRDolpD0e9PbuwKc593ffPouTL/0RpmWDZXfA6/Whvr4efn8DLJsdXV2daG5uhtfnRZ2vTj2zElZqbhU5ampWQr4Gp/RinuiVK1fgthnwNzQgZ1pw1tQim87ILsBDD+2F3WaVf1kt9KMN/PTnz+P1s0Pw1ci3XBpmPguH7JdJLcMy8nDUuMTObPDIM2tra9HW3oYdux5A38CD2NPfB9MsEVqXXCKRkIg4oSY5qDVeNcmxsTFEQgHs27sbk3ML8DW2IJfNqOCzb98gPG4R4I5Aq6DfpvH9n72K15Z2wmsrwJNdhDMXg5WJwpaPwZaNwiXPMVJyLxcB8ilkM8tw2E2ExS1+/avfYmD3brXjSnKrfI43M5mMGtSivnLQF6m9QGAOra2tyInpBkNBtYb+mZe5O4WIIX9tiEaTGI8aqLHbkbOciLtaEfD1YarpCzK+jMnWr+Fq95MY3nYMo9u+h6ltxxHqPY7E5kdEw0U4bZUz2qq7NTU1ijnJUBscWviU+Nb58+fR2Niocl0ul0VMIiiDD0nfHUonHFiMIZR1w1YswCqIv0sUtvI5ODMJ2HJ5GHkbTPq/EE85mxDxbEOwfhBBWyfq6xrR3ib+XwGryFmWpQiSEIMKyVFwXqPRCCanphBcjCASiYhfpPD+e0NYWk7KgRRgE6e/U5SoATOBecSZVgyn+IkBUw7YlHqemi3Iorwpc0WbPMeCxFL5nJZ1GdjCo2hp9sPjqy/vtBpr9NnAYFEmxCsHidIsXeLU0eUsQtElOFxePLB7QDkyzdntlkhQxgo3rgqTQUk1hkPYFlA0hJQQ4ihB/J6+KUGFn0ncgAV7MQsszaOlpaO0rALWkNskVYjTKXYfjytz5KAm7eIP9ZLn/L5aZCTvXbt8QSJZElHRIsP1uJRmk5OTiEkNqguA24NrikJO/NliaK/WvC04kEJxeQ7beraW763FGnI0zf7+fhUpWV6RJKMoNddG2xafoNZq6xpUTmT9uWegX2zfJ+uWcPLkK0Jy6mbE2hhUUUbIJZB31Mq3Un69HcRWYIpFmakwOrd0le+uxRpyRJ3UkwcPHhQ/silSS0tLInhcmWhB7OXytVGMzQRx8NBhfPupJ1VC5W/6+nbh2LFjKppWi4z4bGBJfEx8VpJO+e7G4LnZU1HJuUBLZ+VgQlQkR/j9fjz88MPKTOmHrBiczhrRrKm0+/jRr+PIkUelepAnKFCwggQkhxrVIhSOYzIhZmYr0qPKdzdGwZD1iWn45FCbW+6CHH3GNE2lBRIk2ToxPZZEjY1+iZ7Rm6XZavBe9QFleiGCcEYCBE20SnIwTBjJEJrqa+EXedbDurstLi4qk3S73fD5fIogfa6np1uZ3+LigirHdB2q/Edtp0d1mJgPI1MQYaVOre538hyJnMl4EN1ikpZocT1U3I2+xahHn2OUpE+RXJe0Or29vdi1axf27t2rzHN6enoFwTvH9HwCWdONnKQAyWilmxugKFpz5iQAxeak9eop362MiuQYHWlyFJ5Rj+ZJog6HQ33mPc6xgGWFwoh6O6xnqFOS41Djkz1JrJS4ifWDiwFHIQkrHUNHtyZXeW1FcsxthPYp+h8/U6NM7ivzGDXLw7gdKPKtIhSyKYwu5pBxeGHnYUoktsrao4ZWoigHSsImw052CS4jjbbu7vLkHZBTIV8eRgKakE7ounLRpkht6kS/PvhwrRPKUhKGjW4qNIHNyTH5ZiJruZERE80bEoFvIadhSKtlLgXhcdnQ2d5evql3Xo11yVF4EuRVvy9hviMJPa8jKs2UPloJKali5oILGJkM4Pr4NEKRuFpPLEZiMOf/je0zf0Dn1EvYGvg7WmMX4ZWWhyjY3NIPSxxVai9FYaYLIxFAc0M9GiRqE58c22qsIqdPVJsgCfBKQqFQSJVX7BioqZUE+f5E+6lGTgphvn4ICrF4YlmIRHBl+AZOnX4X56/dUGuC8wHMz07CnY+iLXUVHaEz6J7+C7ZMvYqOiVdQN3cGnuSkkBNNiunmTJdERymcY7NSMG+Srr1Uz1amJvdFuDUGy4aVqYBBhNPUHDuB0dFRbN68GTt37lQBhSbJwXUka4gpcf2ikJqQgyBhu8wZot20tC4FmU9l8qrD2N7Vhnf+cQav/e2v8NT64JLCu0FSjttFbdkwNjqGdDINq1FMz98Ky9uDZEM/4GtB4V+/wQ++shM/fPZEWeJPwOdry6hIbmZmRr1uYLDQmiPBQCCA8fFx7Jaul2mBpNgikaDd7hDTjOPUqVOq30vLb6hJ/tZhtyT5l1oTw7KjzudVXkhrGL5yCcNXr6qDyIk/ezxuqYj8SKWl+5DqxSs1lllIoyjlWY2/GZ5NbYiNX8WPn3sOR48eLQm8AivJWT8RqE8rwKCxsLCgFnGxHhSWiZ0aZNNKYlxDvyN8IjQP5dKli6hxudRa5sgm0bZLvi8s0JeKaGpqRv/AAA488jk89tXH8MVHv4TevgF4pQoKhxexMD+HdCqOrJGDJVpMJKR/E9/zQPrMeASpZArHnn563SZ1Q83Rry5evKgIEbxSAwwaDCx8l0KtHTp0SFUwbJFIlJrmGBkZwdDQe5idm1NlWlA0RDP+xuOP49Dhw1IkO9R3OotLzsXl9ojZFhEIseq5hKF33xazHMGYWEk0HEFR/DebEwuQZ7D7Zyl4+vRp5SK3grJuSI63Ll++fDN/8buOmkzY9EcGF75q27NnjyLHUTJPMR9qVEI2X00wwtISiI6OUmNZkLbJknmmbIc0u6l0Blcl2ISiMdhr3IjLc2yWmPlCGDOTo/j4ykeYnhpHt+Q17sd9Tpw4IY1qi9pvJW5LjqB2aGI0OS7R/sPNGVyoQZJkYb1161alSa4luVJlY6mOwel0qG7CxntChPNFIUeC/Nfgufc/xOun3sS16zdgl7VNIvCDgwekju1Avd2J5HIE42PD4o9JVRGxDOTYv3+/6lZuRVXkdPDgQhLjoAboR9QoNUgz5ZW9HB/Iea1FfSD8PV9FmEy+Qp7EeUiMyENDQzhz9p/Ytn07ekQrJNfe2anMbYn7hxfUoXlrvejf3ade23fKPP19PVRFjr5C39FCanL6VR9NlCR1mmhqasKABAkKfP36dSUA/ZGHwUPglXsQurunGe/csUv5EAWKx6OiYSiybK3q/Y3YsWO7mP9a81sPVZHjw0lOE9PkeOpM4jqZa+HpZ88884wiS4Lnzp1TUZUgURIhqAnuRQG4R2d7BxrFvChEW0e7tFQ9aBJfdsl+n4CzJYFvh6rI0bfodwwkHBSIOY8ENUkOrUWuf+KJJ25GMG77wQcf4K233lJpxev1qgDAg+BamteWLVvQKcGhWe5zfi20aNURI6oiRyHod7oE01cS41Und61FBpcjR45gu5jUrZiTlEBT5XqaL6NeZTKfHlWRo6boG9okKRiJ6bpSE+V9mibfhB04cEAJ/lliFTnRyBpyJENT45XgD7R5cmjC7MIvXLiAw5KYSVK/ivgsoYkRhpx+Rc1VixdeeEFFxePHj6tgce8A+A+rImmxLI2yWAAAAABJRU5ErkJggg==;" vertex="1" parent="zww3sfRDonu8iNrRwF99-2">
          <mxGeometry x="145" y="720" width="55" height="45" as="geometry" />
        </mxCell>
        <mxCell id="zww3sfRDonu8iNrRwF99-47" style="edgeStyle=orthogonalEdgeStyle;rounded=0;orthogonalLoop=1;jettySize=auto;html=1;entryX=0.5;entryY=0;entryDx=0;entryDy=0;" edge="1" parent="zww3sfRDonu8iNrRwF99-2" source="zww3sfRDonu8iNrRwF99-42" target="zww3sfRDonu8iNrRwF99-44">
          <mxGeometry relative="1" as="geometry" />
        </mxCell>
        <mxCell id="zww3sfRDonu8iNrRwF99-42" value="&amp;lt;&amp;lt;Datastore&amp;gt;&amp;gt;&lt;br&gt;Factura" style="rounded=0;whiteSpace=wrap;html=1;fillColor=#f5f5f5;fontColor=#333333;strokeColor=#666666;" vertex="1" parent="zww3sfRDonu8iNrRwF99-2">
          <mxGeometry x="40" y="880" width="120" height="40" as="geometry" />
        </mxCell>
        <mxCell id="zww3sfRDonu8iNrRwF99-44" value="" style="shape=image;verticalLabelPosition=bottom;labelBackgroundColor=default;verticalAlign=top;aspect=fixed;imageAspect=0;image=data:image/png,iVBORw0KGgoAAAANSUhEUgAAACQAAAA1CAYAAAApikmmAAAAAXNSR0IArs4c6QAAAARnQU1BAACxjwv8YQUAAAAJcEhZcwAADsMAAA7DAcdvqGQAAARwSURBVFhH7ZlLKHVRFICX63pLBph45lnIe2hC8og8BsqjkLeIiaIYKBPKTEaiJBRhysgEGSiK8pZEnhHyfpx/r/3vc93rnnvOvvf8/Pev/6vd3nvte85ZZ5+19l5rXxuBAFaEhtVWw3+FlPivkBJGXnZ2dgZ7e3ug0Viuq7OzM0RFRbGeeRgoNDw8DEtLSxAaGmqxQjY2NrC2tgbHx8cwMTEBTk5ObIQTVAg5PDwUKisrhff3dyaxnNnZWSE3N1eoqakR7u7umJQP3TTs7++Dt7e3qk8lcnl5CbW1tZCTkwMVFRXw8PDARpTRPV2r1QKZHdZTB362i4sLyMjIgLy8PCgvL+dWSv10KFBQUADZ2dlAzIFLqW9XCCkqKoLMzEyoqqqCx8dHJpVGy2pZJicn4eDggH4KEWJ/4O7uDmVlZWBra8ukpikuLqY1MXTo7+8HBwcH2v8K1wwFBwdDbGysQYmLi4PIyEgDJZVApVJTU6G6uhpeXl6Y9Au/nU0Q5ufnhfb2dtZTx+joqEDWNNYzZmhoSCgtLRWen5+Z5JMfsaGvlJSUQFJSEl0avs7UtyhEXpRuH3KQGYKsrCxobW2Fj48PJtXbOhYWFmBmZgY6OzvpgBrGxsZgbm6O2gu7vSQuLi7Q19dHnWNkZITKuLyMfHPY2Ngw8CZ8K09PT2hqajLysuTkZLi/v4erqytZha6vr6GwsBDGx8eZhHOGdnd34ebmhvU+cXR0hPDwcLM8TYru7m5oaWmhbW63j4+PNyoRERGqlUGenp5Y64dWanPgsiF9Tk5OoL6+nvU+mZqakhxLSEiAtLQ0OqNcoA0hvAvj8vIy2pyQmJhI22KRGiOeJpDwg8qam5vpb6To6OhgLUHgmqHBwUHY2tqi9nJ6ekpl5+fnNCIUwbbUmIeHB41Ae3p6IDAwEOrq6qjcFFoSKYKfnx/rSoPhA+7SqBCGp7gM4M0bGhrYL35jaiwsLIzGRKLCcmjQ1ZXAt/T19QUfHx/w8vKiMryusbFRV/THMI7GvljEgB8VVkKDAdTt7S3r8kPsBNra2nSFh6CgINYyjcVuj6u0/pokBwn6aR0dHU1rOTRubm6A5bvY3t6mMxgSEgIkE2FS03B52cDAAGxubtKMRDTM9fV13XIvIo5NT09Tz0JHODo6osqkpKTQnA9rObgUys/PN4hbMJ5xdXWVtAkc0we3HdzVEbGWAl+mq6vL/IXxOxAXxpWVlb8TMZoiJibG+jZXLoVIME4DLjUFk8TX11d2R9Nw72Wrq6tc+ZcpME1Ht8f0WhZqTQQ5oyZvRlMW4mkWF7ze1MmK/m7P9cnwIMLe3h7s7OwsLng9z8nKv2nUPwmXQughmHWoLeitSnB5GcnVaV6m5nSN2Cukp6cr7mXcWwdJDFnLMuSuN9vLELX5F+/11mvUb29vqlZiNeg/V6eQv78/PRomn5FJfgbcUnZ2dlhP77AB6e3thcXFRQgICPgjObsS+Gg8u8TTEjwQRYz+6/jbWK9RWwcAvwBAHgAUVraakAAAAABJRU5ErkJggg==;" vertex="1" parent="zww3sfRDonu8iNrRwF99-2">
          <mxGeometry x="82" y="960" width="36" height="53" as="geometry" />
        </mxCell>
        <mxCell id="zww3sfRDonu8iNrRwF99-3" value="Banco" style="swimlane;whiteSpace=wrap;html=1;" vertex="1" parent="1">
          <mxGeometry x="520" y="80" width="200" height="1160" as="geometry" />
        </mxCell>
        <mxCell id="zww3sfRDonu8iNrRwF99-38" value="Confirmacion" style="ellipse;whiteSpace=wrap;html=1;" vertex="1" parent="zww3sfRDonu8iNrRwF99-3">
          <mxGeometry x="45" y="800" width="110" height="50" as="geometry" />
        </mxCell>
        <mxCell id="zww3sfRDonu8iNrRwF99-40" value="" style="shape=image;verticalLabelPosition=bottom;labelBackgroundColor=default;verticalAlign=top;aspect=fixed;imageAspect=0;image=data:image/png,iVBORw0KGgoAAAANSUhEUgAAACAAAAAfCAYAAACGVs+MAAAAAXNSR0IArs4c6QAAAARnQU1BAACxjwv8YQUAAAAJcEhZcwAADsMAAA7DAcdvqGQAAAPZSURBVFhH7ZdZK3VRGMefc0wZMxUZEoUoQyhDigsl5cKFezfKF/ABfAEXckFHoYQLLhQiSsQFbsyEMkWGzPO83vV/zt7ss/c+53jfepPe91e7tfZaa6/938+0zrE8Pj6Ku7s7Cg0Npe/AqrTfxs8Q8Pb2RkII5c49v7PWIAAPa6/+/n7q6+sznXN2zc3NUWdnJ93c3DiMm4IgPDs7k/N23t/fuX1+fhbt7e1iZmaG74+Ojj7mXHF+fs7t1taWaGlpEYeHh3zvDFMBGGtsbBQbGxs8Njg4KMbHx7nvjpWVFdHb2ytub2/F1dWVaGhoEPv7+8qsEVMBXV1dYmFhge97enrE5uYm9xcXF3lTM2SciLW1NbYc9uvu7mZrnJ6e8sc4wxADOzs75OXlRenp6ez/jIwMSkhIoLGxMfLz86OAgABlpSNWq5VCQkJoYmKC+2VlZTQ8PExhYWGUk5ND09PTykodegsMDQ2J6+trsb29LUZGRnhMburWlyr39/didHSULQKLTU1N8TjcgnfpMVjAw8ODAgMDSfqScnNz6eDggO8jIyOVFZ8gPfX4+vpSYmIiyZdTWloaHR8f83h0dDTJWOC+FoMAmBFIcRQUFMQC4uPjeUwFc/X19ZSSkkKlpaW0t7enzNiJjY0lGYTcDw4OJmlRiouLIxkTPKbFIMDHx4dbb29vbmVQsu+1SJdRbW0tyeAk6SZqbW1VZuwgBhBHAM9CgL+/P728vPCYFoOA19dXh9ZisRgexFfV1NTwi2CdiooKZeYT1T0yK/ij0MK9egwCoBZAAC64QRYhHlPx9PSk5uZmCg8Pp7q6OsrMzFRm7FxeXrI4tY9MkEHMsaTHIODh4YHNHhMTQ0tLS5ScnEy7u7sfFtGivkTP8vIyJSUl0cnJCbsS65De2FOPYQdEu0wdysrKovX1daQppaam0uTkJPdVEIi4IFYF/dnZWf5tgUtWT8rLy+MPgBBYU49BAFJndXWVLi4uqLi4mIsRNkNhkucCf5UZT09PPA+3QLAs32w9xMvAwAAVFhYqKx0xCIC5ysvL+TSD7/AgTkOkVUFBgdNKiLiA1fBCrIe5UUU7OjooOzubs8AMUyfi4ZKSErLZbJxOlZWVnHL4en1KqiDCIR5xU1RUxFZoa2vjmgA3OMXsMFKRRYiPVJRklFYtWBcRESHkS5SRT+bn50VTU9PHgeYK8zBWiIqKourqaja7M9/rQf7Lfamqqorjxh0uBajk5+ebngVmwBWoCzgTvsKXBPxN/gv4uQJwSmrL8J9ixUZa9PeuQNVzVhm/ikXWcPyE/lf/nBL9Ar//s2okeehqAAAAAElFTkSuQmCC;" vertex="1" parent="zww3sfRDonu8iNrRwF99-3">
          <mxGeometry x="130" y="780" width="42.32" height="41" as="geometry" />
        </mxCell>
        <mxCell id="zww3sfRDonu8iNrRwF99-10" style="edgeStyle=orthogonalEdgeStyle;rounded=0;orthogonalLoop=1;jettySize=auto;html=1;entryX=0.5;entryY=0.045;entryDx=0;entryDy=0;entryPerimeter=0;" edge="1" parent="1" source="zww3sfRDonu8iNrRwF99-6" target="zww3sfRDonu8iNrRwF99-9">
          <mxGeometry relative="1" as="geometry">
            <Array as="points">
              <mxPoint x="220" y="230" />
            </Array>
          </mxGeometry>
        </mxCell>
        <mxCell id="zww3sfRDonu8iNrRwF99-14" style="edgeStyle=orthogonalEdgeStyle;rounded=0;orthogonalLoop=1;jettySize=auto;html=1;entryX=0;entryY=0.5;entryDx=0;entryDy=0;" edge="1" parent="1" source="zww3sfRDonu8iNrRwF99-9" target="zww3sfRDonu8iNrRwF99-11">
          <mxGeometry relative="1" as="geometry">
            <Array as="points">
              <mxPoint x="220" y="360" />
            </Array>
          </mxGeometry>
        </mxCell>
        <mxCell id="zww3sfRDonu8iNrRwF99-17" style="edgeStyle=orthogonalEdgeStyle;rounded=0;orthogonalLoop=1;jettySize=auto;html=1;entryX=0.945;entryY=0.45;entryDx=0;entryDy=0;entryPerimeter=0;" edge="1" parent="1" source="zww3sfRDonu8iNrRwF99-13" target="zww3sfRDonu8iNrRwF99-9">
          <mxGeometry relative="1" as="geometry">
            <Array as="points">
              <mxPoint x="510" y="430" />
              <mxPoint x="510" y="277" />
            </Array>
          </mxGeometry>
        </mxCell>
        <mxCell id="zww3sfRDonu8iNrRwF99-18" value="No" style="edgeLabel;html=1;align=center;verticalAlign=middle;resizable=0;points=[];" vertex="1" connectable="0" parent="zww3sfRDonu8iNrRwF99-17">
          <mxGeometry x="-0.936" relative="1" as="geometry">
            <mxPoint x="-1" y="-10" as="offset" />
          </mxGeometry>
        </mxCell>
        <mxCell id="zww3sfRDonu8iNrRwF99-34" style="edgeStyle=orthogonalEdgeStyle;rounded=0;orthogonalLoop=1;jettySize=auto;html=1;entryX=0.5;entryY=0.045;entryDx=0;entryDy=0;entryPerimeter=0;" edge="1" parent="1" source="zww3sfRDonu8iNrRwF99-31" target="zww3sfRDonu8iNrRwF99-30">
          <mxGeometry relative="1" as="geometry" />
        </mxCell>
        <mxCell id="zww3sfRDonu8iNrRwF99-37" style="edgeStyle=orthogonalEdgeStyle;rounded=0;orthogonalLoop=1;jettySize=auto;html=1;entryX=0;entryY=0.5;entryDx=0;entryDy=0;" edge="1" parent="1" source="zww3sfRDonu8iNrRwF99-30" target="zww3sfRDonu8iNrRwF99-35">
          <mxGeometry relative="1" as="geometry">
            <Array as="points">
              <mxPoint x="210" y="850" />
            </Array>
          </mxGeometry>
        </mxCell>
        <mxCell id="zww3sfRDonu8iNrRwF99-41" style="edgeStyle=orthogonalEdgeStyle;rounded=0;orthogonalLoop=1;jettySize=auto;html=1;entryX=0.5;entryY=0;entryDx=0;entryDy=0;" edge="1" parent="1" source="zww3sfRDonu8iNrRwF99-35" target="zww3sfRDonu8iNrRwF99-38">
          <mxGeometry relative="1" as="geometry" />
        </mxCell>
        <mxCell id="zww3sfRDonu8iNrRwF99-43" style="edgeStyle=orthogonalEdgeStyle;rounded=0;orthogonalLoop=1;jettySize=auto;html=1;entryX=0.5;entryY=0;entryDx=0;entryDy=0;" edge="1" parent="1" source="zww3sfRDonu8iNrRwF99-38" target="zww3sfRDonu8iNrRwF99-42">
          <mxGeometry relative="1" as="geometry" />
        </mxCell>
        <mxCell id="zww3sfRDonu8iNrRwF99-48" style="edgeStyle=orthogonalEdgeStyle;rounded=0;orthogonalLoop=1;jettySize=auto;html=1;entryX=0.5;entryY=0;entryDx=0;entryDy=0;" edge="1" parent="1" source="zww3sfRDonu8iNrRwF99-44" target="zww3sfRDonu8iNrRwF99-45">
          <mxGeometry relative="1" as="geometry" />
        </mxCell>
      </root>
    </mxGraphModel>
  </diagram>
</mxfile>
